<svg id="Layer_1" enable-background="new 0 0 512.032 512.032" height="512" viewBox="0 0 512.032 512.032" width="512" xmlns="http://www.w3.org/2000/svg"><path d="m256.042 347.807-11.891 16.504-74.387-53.844 216.585-302.911c41.158 29.65 50.481 87.054 20.821 128.205z" fill="#d0d0d9"/><path d="m386.35 7.556-17.058 23.856c20.433 30.919 20.834 72.5-2.122 104.349l-150.013 209.01 26.995 19.54 11.891-16.504 151.127-212.046c29.66-41.151 20.338-98.556-20.82-128.205z" fill="#bfbfc7"/><path d="m263.672 358.469 74.529-53.69-213.852-297.223c-41.158 29.65-50.481 87.054-20.821 128.205z" fill="#ededf8"/><path d="m124.349 7.555c-9.182 6.615-16.775 14.613-22.708 23.501l213.29 296.378-48.785 34.475 75.018-53.013z" fill="#dadae3"/><path d="m487.596 362.498c-28.505-39.549-83.281-48.966-123.3-21.594l-26.095-36.125-74.529 53.69 69.92 96.927 8.561 11.877c28.941 40.153 84.961 49.248 125.124 20.315s49.26-84.937 20.319-125.09zm-43.208 93.335c-22.512 16.217-53.911 11.119-70.133-11.387-16.221-22.506-11.122-53.896 11.39-70.114 22.512-16.217 53.911-11.119 70.133 11.386s11.122 53.898-11.39 70.115z" fill="#fe79a9"/><path d="m487.596 362.498c-21.714-30.127-58.67-42.745-92.737-34.959 20.511 4.682 39.47 16.552 52.737 34.959 8.827 12.247 14.096 25.969 16.044 39.947 2.219 8.544 2.121 17.461-.157 25.839-3.481 22.997-15.841 44.633-36.208 59.304-10.007 7.209-20.998 12.054-32.309 14.649 24.213 5.505 50.58 1.005 72.309-14.649 40.164-28.933 49.262-84.937 20.321-125.09z" fill="#f4549b"/><path d="m173.831 304.779-26.095 36.125c-40.019-27.372-94.795-17.955-123.3 21.594-28.941 40.152-19.843 96.157 20.32 125.09s96.183 19.838 125.124-20.315l8.561-11.877 69.92-96.927zm-36.054 139.668c-16.221 22.506-47.621 27.604-70.133 11.387s-27.611-47.608-11.39-70.114 47.621-27.604 70.133-11.386c22.512 16.216 27.611 47.607 11.39 70.113z" fill="#fe79a9"/><path d="m221.325 338.992-69.181 95.904-8.561 11.877c-26.286 36.469-74.908 47.311-113.701 27.316 4.356 4.939 9.305 9.487 14.874 13.499 40.163 28.933 96.183 19.838 125.124-20.315l8.561-11.877 69.92-96.927z" fill="#f4549b"/><circle cx="256.016" cy="270.95" fill="#797a84" r="15.328"/><path d="m493.68 358.113c-4.695-6.514-10.162-12.417-16.249-17.546-7.177-6.048-17.168 5.149-9.664 11.472 5.145 4.335 9.77 9.33 13.745 14.845 12.825 17.794 17.952 39.516 14.436 61.165-3.517 21.649-15.256 40.633-33.056 53.455-36.744 26.47-88.179 18.12-114.656-18.615l-74.092-102.72 57.693-41.562 4.67-3.364 21.709 30.054c2.381 3.297 6.957 4.095 10.314 1.799 18.827-12.877 42.406-17.339 64.688-12.247 9.152 2.083 12.909-12.435 3.344-14.623-23.959-5.476-49.183-1.607-70.303 10.588l-21.979-30.426c-.001-.001-.002-.002-.003-.003l-22.423-31.165 91.4-129.073c15.517-21.528 21.72-47.81 17.466-74.003-4.254-26.194-18.455-49.162-39.987-64.673-3.98-2.331-7.478-1.752-10.495 1.737l-26.74 37.581c-5.441 7.647 6.534 16.692 12.223 8.696l22.175-31.165c14.956 12.911 24.813 30.491 28.019 50.228 3.612 22.238-1.654 44.551-14.864 62.879l-88.458 124.917-47.292-65.73 79.011-111.044c5.441-7.648-6.534-16.692-12.223-8.696l-76.046 106.875-125.606-174.574c-3.02-3.461-6.51-4.029-10.472-1.705-21.531 15.511-35.732 38.479-39.986 64.673-4.254 26.193 1.949 52.475 17.46 73.996l92.794 129.047-22.487 31.208c-.001.002-.002.004-.004.006l-21.965 30.407c-19.701-11.426-42.619-15.539-65.296-11.59-25.142 4.378-47.207 18.192-62.13 38.896-15.168 21.045-21.231 46.736-17.072 72.34 4.16 25.604 18.043 48.056 39.094 63.221 17.141 12.348 36.985 18.289 56.655 18.289 30.194 0 59.977-13.998 78.937-40.304l78.478-108.802c0-.001.001-.001.001-.002 0 0 .001-.001.001-.001l1.572-2.182 1.563 2.174c.003.004.005.008.007.011l78.479 108.802c18.962 26.308 48.74 40.306 78.937 40.303 19.667-.001 39.517-5.942 56.655-18.288 21.051-15.165 34.935-37.617 39.094-63.221 4.161-25.604-1.903-51.295-17.072-72.34zm-398.895-289.566c3.208-19.75 13.077-37.341 28.05-50.254l126.662 176.042c.287.516.631 1.007 1.044 1.451l77.193 107.288-35.306 25.434-27.051 19.487-2.892-4.021c-.208-.35-.451-.682-.718-.998l-152.156-211.6c-13.172-18.277-18.437-40.59-14.826-62.829zm151.998 279.281-.124.172-62.359-44.922 15.168-21.049zm-82.987 115.06c-26.478 36.734-77.911 45.083-114.656 18.615-17.799-12.822-29.539-31.806-33.055-53.455-3.517-21.648 1.61-43.371 14.436-61.165 12.618-17.506 31.275-29.186 52.535-32.889 4.754-.828 9.517-1.237 14.251-1.237 16.4 0 32.417 4.913 46.195 14.337 3.357 2.296 7.934 1.498 10.314-1.799l21.709-30.053 62.362 44.925z"/><path d="m381.261 368.248c-12.514 9.014-20.767 22.361-23.239 37.582s1.132 30.493 10.149 43.003c11.271 15.637 28.975 23.958 46.923 23.958 11.692 0 23.488-3.531 33.678-10.872 12.514-9.014 20.767-22.361 23.238-37.582 2.473-15.22-1.131-30.493-10.148-43.003-18.614-25.824-54.771-31.695-80.601-13.086zm68.433 21.857c6.673 9.259 9.341 20.563 7.511 31.828s-7.938 21.144-17.2 27.815c-19.121 13.776-45.886 9.429-59.665-9.686-6.674-9.259-9.341-20.563-7.512-31.828 1.83-11.265 7.939-21.144 17.201-27.815 7.544-5.435 16.274-8.048 24.931-8.048 13.285 0 26.391 6.16 34.734 17.734z"/><path d="m130.771 368.248c-25.831-18.607-61.987-12.738-80.601 13.086-15.537 21.556-14.413 50.76 2.735 71.019 6.063 7.163 17.789-2.201 11.449-9.691-12.687-14.989-13.516-36.601-2.015-52.557 13.777-19.116 40.543-23.46 59.664-9.686 9.262 6.672 15.371 16.55 17.201 27.815s-.838 22.568-7.512 31.828c-8.314 11.535-21.803 18.163-36.015 17.733-10.757-.357-9.35 15.02 1.31 15.02 18.567 0 35.988-8.879 46.874-23.982 9.017-12.51 12.621-27.783 10.148-43.003-2.471-15.222-10.725-28.568-23.238-37.582z"/><path d="m278.844 270.95c0-12.587-10.24-22.828-22.828-22.828-12.587 0-22.828 10.24-22.828 22.828s10.24 22.828 22.828 22.828c12.588-.001 22.828-10.241 22.828-22.828zm-30.656 0c0-4.316 3.511-7.828 7.828-7.828s7.828 3.511 7.828 7.828-3.512 7.828-7.828 7.828-7.828-3.512-7.828-7.828z"/></svg>